<?xml version="1.0" standalone="no"?>
<!DOCTYPE svg PUBLIC "-//W3C//DTD SVG 20010904//EN"
 "http://www.w3.org/TR/2001/REC-SVG-20010904/DTD/svg10.dtd">
<svg version="1.0" xmlns="http://www.w3.org/2000/svg"
 width="260.000000pt" height="260.000000pt" viewBox="0 0 260.000000 260.000000"
 preserveAspectRatio="xMidYMid meet">
<metadata>
Created by potrace 1.11, written by Peter Selinger 2001-2013
</metadata>
<g transform="translate(0.000000,260.000000) scale(0.100000,-0.100000)"
fill="#000000" stroke="none">
<path d="M385 2503 c3 -38 7 -90 10 -118 2 -27 7 -86 10 -130 3 -44 8 -93 10
-110 2 -16 7 -75 10 -130 4 -55 9 -107 10 -115 2 -8 6 -62 9 -120 10 -150 10
-152 59 -175 64 -32 668 -340 794 -406 177 -93 175 -95 67 49 -52 70 -130 175
-173 234 l-80 107 25 26 c82 89 261 86 338 -5 59 -71 60 -76 62 -433 1 -181
-2 -344 -6 -364 -23 -99 -104 -171 -205 -180 -153 -15 -255 94 -255 272 l0 61
-62 32 c-35 18 -103 54 -153 80 -107 57 -286 151 -445 235 -63 33 -119 64
-124 68 -6 5 -16 9 -24 9 -11 0 -13 -51 -11 -297 2 -281 4 -312 35 -463 7 -34
76 -179 106 -223 85 -126 214 -227 378 -298 76 -33 168 -62 235 -75 11 -2 43
-8 70 -13 52 -10 434 -9 471 2 12 3 37 8 56 11 108 17 324 107 422 176 182
128 304 349 325 589 9 107 6 696 -4 751 -33 186 -113 348 -229 465 -130 130
-269 202 -493 255 -264 62 -613 35 -848 -65 -44 -19 -83 -35 -87 -35 -3 0 -72
90 -153 200 -82 110 -150 200 -152 200 -2 0 -1 -30 2 -67z"/>
</g>
</svg>
